<?xml version="1.0" standalone="no"?>
<svg xmlns:xlink="http://www.w3.org/1999/xlink" id="wave" style="transform:rotate(0deg); transition: 0.3s" viewBox="0 0 1440 350" version="1.1" xmlns="http://www.w3.org/2000/svg"><defs><linearGradient id="sw-gradient-0" x1="0" x2="0" y1="1" y2="0"><stop stop-color="rgba(82, 122, 135, 0.52)" offset="0%"/><stop stop-color="rgba(243.936, 243.936, 243.936, 1)" offset="100%"/></linearGradient></defs><path style="transform:translate(0, 0px); opacity:1" fill="url(#sw-gradient-0)" d="M0,210L120,227.5C240,245,480,280,720,268.3C960,257,1200,198,1440,145.8C1680,93,1920,47,2160,29.2C2400,12,2640,23,2880,58.3C3120,93,3360,152,3600,151.7C3840,152,4080,93,4320,87.5C4560,82,4800,128,5040,157.5C5280,187,5520,198,5760,204.2C6000,210,6240,210,6480,221.7C6720,233,6960,257,7200,262.5C7440,268,7680,257,7920,227.5C8160,198,8400,152,8640,163.3C8880,175,9120,245,9360,280C9600,315,9840,315,10080,315C10320,315,10560,315,10800,309.2C11040,303,11280,292,11520,250.8C11760,210,12000,140,12240,145.8C12480,152,12720,233,12960,239.2C13200,245,13440,175,13680,151.7C13920,128,14160,152,14400,175C14640,198,14880,222,15120,204.2C15360,187,15600,128,15840,105C16080,82,16320,93,16560,134.2C16800,175,17040,245,17160,280L17280,315L17280,350L17160,350C17040,350,16800,350,16560,350C16320,350,16080,350,15840,350C15600,350,15360,350,15120,350C14880,350,14640,350,14400,350C14160,350,13920,350,13680,350C13440,350,13200,350,12960,350C12720,350,12480,350,12240,350C12000,350,11760,350,11520,350C11280,350,11040,350,10800,350C10560,350,10320,350,10080,350C9840,350,9600,350,9360,350C9120,350,8880,350,8640,350C8400,350,8160,350,7920,350C7680,350,7440,350,7200,350C6960,350,6720,350,6480,350C6240,350,6000,350,5760,350C5520,350,5280,350,5040,350C4800,350,4560,350,4320,350C4080,350,3840,350,3600,350C3360,350,3120,350,2880,350C2640,350,2400,350,2160,350C1920,350,1680,350,1440,350C1200,350,960,350,720,350C480,350,240,350,120,350L0,350Z"/></svg>